<svg xmlns="http://www.w3.org/2000/svg" viewBox="0 0 1200 627" role="img" aria-label="skill-evaluator — do the rules actually land?" shape-rendering="crispEdges" style="image-rendering: pixelated; image-rendering: crisp-edges;">
  <title>skill-evaluator — do the rules actually land?</title>
  <desc>Pixel-art banner for the skill-evaluator Claude Code plugin: title at top, a SKILL.md source card on the left with a list of rules, a FINDINGS audit card in the center with pass/fail badges and a magnifier zoomed on a failing rule, and a RULE-TEXT FIX card on the right showing a before/after diff. Chapter labels SOURCE · EVALUATE · FIX below.</desc>

  <!-- background: soft warm paper with scanlines -->
  <defs>
    <pattern id="scan-li" x="0" y="0" width="8" height="8" patternUnits="userSpaceOnUse">
      <rect width="8" height="8" fill="#f5efe6"/>
      <rect y="6" width="8" height="2" fill="#eadfcf"/>
    </pattern>
  </defs>
  <rect width="1200" height="627" fill="url(#scan-li)"/>

  <!-- =========== TITLE BLOCK (top, centered) =========== -->
  <g font-family="ui-monospace, SFMono-Regular, Menlo, monospace" text-anchor="middle">
    <text x="600" y="88" font-size="44" font-weight="700" fill="#1f2937" letter-spacing="2">skill-evaluator</text>
    <text x="600" y="124" font-size="20" fill="#6b7280">do the rules actually land?</text>
    <text x="600" y="154" font-size="12" fill="#9ca3af" letter-spacing="4">AUDIT · GAP FINDING · RULE-TEXT FIX</text>
  </g>

  <!-- =========== SECTION LABELS (chapter markers under each card) =========== -->
  <g font-family="ui-monospace, SFMono-Regular, Menlo, monospace" text-anchor="middle">
    <text x="200" y="578" font-size="13" fill="#1f2937" letter-spacing="4">SOURCE</text>
    <text x="590" y="578" font-size="13" fill="#c2410c" font-weight="700" letter-spacing="4">EVALUATE</text>
    <text x="990" y="578" font-size="13" fill="#1f2937" letter-spacing="4">FIX</text>
  </g>

  <!-- =========== CARD 1: SKILL.md source (clipboard style) =========== -->
  <!-- Position: x=70, y=210, w=260, h=320 -->
  <g>
    <!-- card paper -->
    <rect x="70" y="210" width="260" height="320" fill="#f3e7c9"/>
    <rect x="70" y="210" width="260" height="5"   fill="#b79a5c"/>
    <rect x="70" y="525" width="260" height="5"   fill="#b79a5c"/>
    <rect x="70" y="210" width="5"   height="320" fill="#b79a5c"/>
    <rect x="325" y="210" width="5"  height="320" fill="#b79a5c"/>
    <!-- clip at top -->
    <rect x="170" y="200" width="60" height="14" fill="#6b7280"/>
    <rect x="180" y="194" width="40" height="6"  fill="#6b7280"/>

    <!-- title bar "SKILL.md" -->
    <rect x="76" y="222" width="248" height="34" fill="#fdf7ea"/>
    <g font-family="ui-monospace, SFMono-Regular, Menlo, monospace" fill="#1f2937">
      <text x="94" y="245" font-size="18" font-weight="700">SKILL.md</text>
    </g>
    <rect x="76" y="256" width="248" height="2" fill="#b79a5c"/>

    <!-- rule 1 -->
    <rect x="96" y="278" width="8" height="8" fill="#1f2937"/>
    <rect x="114" y="281" width="176" height="4" fill="#6b7280"/>
    <rect x="114" y="289" width="140" height="4" fill="#9ca3af"/>
    <!-- rule 2 -->
    <rect x="96" y="308" width="8" height="8" fill="#1f2937"/>
    <rect x="114" y="311" width="156" height="4" fill="#6b7280"/>
    <rect x="114" y="319" width="180" height="4" fill="#9ca3af"/>
    <!-- rule 3 (failing, highlighted) -->
    <rect x="86" y="336" width="234" height="28" fill="#fdf7ea"/>
    <rect x="86" y="336" width="3"   height="28" fill="#b91c1c"/>
    <rect x="96" y="344" width="8" height="8" fill="#b91c1c"/>
    <rect x="114" y="347" width="164" height="4" fill="#6b7280"/>
    <rect x="114" y="355" width="124" height="4" fill="#9ca3af"/>
    <!-- rule 4 -->
    <rect x="96" y="378" width="8" height="8" fill="#1f2937"/>
    <rect x="114" y="381" width="172" height="4" fill="#6b7280"/>
    <rect x="114" y="389" width="144" height="4" fill="#9ca3af"/>
    <!-- rule 5 -->
    <rect x="96" y="408" width="8" height="8" fill="#1f2937"/>
    <rect x="114" y="411" width="148" height="4" fill="#6b7280"/>
    <rect x="114" y="419" width="168" height="4" fill="#9ca3af"/>
    <!-- rule 6 -->
    <rect x="96" y="438" width="8" height="8" fill="#1f2937"/>
    <rect x="114" y="441" width="168" height="4" fill="#6b7280"/>
    <rect x="114" y="449" width="128" height="4" fill="#9ca3af"/>
    <!-- rule 7 -->
    <rect x="96" y="468" width="8" height="8" fill="#1f2937"/>
    <rect x="114" y="471" width="152" height="4" fill="#6b7280"/>
    <rect x="114" y="479" width="176" height="4" fill="#9ca3af"/>

    <!-- footer meta -->
    <rect x="96"  y="500" width="56" height="4" fill="#c9b58a"/>
    <rect x="158" y="500" width="36" height="4" fill="#c9b58a"/>
  </g>

  <!-- =========== ARROW 1 (SKILL.md -> FINDINGS) =========== -->
  <g transform="translate(340, 362)" fill="#6b7280">
    <rect x="0"  y="6" width="60" height="6"/>
    <rect x="54" y="0" width="6"  height="6"/>
    <rect x="60" y="6" width="6"  height="6"/>
    <rect x="54" y="12" width="6" height="6"/>
  </g>

  <!-- =========== CARD 2: FINDINGS (audit report, larger) =========== -->
  <!-- Position: x=412, y=210, w=376, h=320 -->
  <g>
    <!-- outer tile -->
    <rect x="412" y="210" width="376" height="320" fill="#ffffff"/>
    <rect x="412" y="210" width="376" height="5"   fill="#c9b58a"/>
    <rect x="412" y="525" width="376" height="5"   fill="#c9b58a"/>
    <rect x="412" y="210" width="5"   height="320" fill="#c9b58a"/>
    <rect x="783" y="210" width="5"   height="320" fill="#c9b58a"/>
    <!-- inner panel -->
    <rect x="422" y="220" width="356" height="300" fill="#fdf7ea"/>

    <!-- title bar -->
    <g font-family="ui-monospace, SFMono-Regular, Menlo, monospace">
      <text x="440" y="250" font-size="18" font-weight="700" fill="#1f2937" letter-spacing="1">FINDINGS</text>
      <text x="760" y="250" font-size="12" fill="#9ca3af" text-anchor="end" letter-spacing="2">6/7 PASS</text>
    </g>
    <rect x="436" y="262" width="328" height="2" fill="#c9b58a"/>

    <!-- row 1: PASS -->
    <rect x="440" y="278" width="22" height="18" fill="#15803d"/>
    <rect x="445" y="287" width="2" height="2" fill="#f5efe6"/>
    <rect x="447" y="289" width="2" height="2" fill="#f5efe6"/>
    <rect x="449" y="287" width="2" height="2" fill="#f5efe6"/>
    <rect x="451" y="285" width="2" height="2" fill="#f5efe6"/>
    <rect x="453" y="283" width="2" height="2" fill="#f5efe6"/>
    <rect x="455" y="281" width="2" height="2" fill="#f5efe6"/>
    <rect x="472" y="281" width="216" height="4" fill="#6b7280"/>
    <rect x="472" y="289" width="170" height="4" fill="#9ca3af"/>

    <!-- row 2: PASS -->
    <rect x="440" y="304" width="22" height="18" fill="#15803d"/>
    <rect x="445" y="313" width="2" height="2" fill="#f5efe6"/>
    <rect x="447" y="315" width="2" height="2" fill="#f5efe6"/>
    <rect x="449" y="313" width="2" height="2" fill="#f5efe6"/>
    <rect x="451" y="311" width="2" height="2" fill="#f5efe6"/>
    <rect x="453" y="309" width="2" height="2" fill="#f5efe6"/>
    <rect x="455" y="307" width="2" height="2" fill="#f5efe6"/>
    <rect x="472" y="307" width="196" height="4" fill="#6b7280"/>
    <rect x="472" y="315" width="188" height="4" fill="#9ca3af"/>

    <!-- row 3: FAIL (magnifier hovers here) -->
    <rect x="432" y="330" width="336" height="26" fill="#fee2e2"/>
    <rect x="432" y="330" width="3"   height="26" fill="#b91c1c"/>
    <rect x="440" y="334" width="22" height="18" fill="#b91c1c"/>
    <!-- X mark -->
    <rect x="445" y="339" width="2" height="2" fill="#f5efe6"/>
    <rect x="447" y="341" width="2" height="2" fill="#f5efe6"/>
    <rect x="449" y="343" width="2" height="2" fill="#f5efe6"/>
    <rect x="451" y="345" width="2" height="2" fill="#f5efe6"/>
    <rect x="453" y="347" width="2" height="2" fill="#f5efe6"/>
    <rect x="455" y="339" width="2" height="2" fill="#f5efe6"/>
    <rect x="453" y="341" width="2" height="2" fill="#f5efe6"/>
    <rect x="451" y="343" width="2" height="2" fill="#f5efe6"/>
    <rect x="449" y="345" width="2" height="2" fill="#f5efe6"/>
    <rect x="447" y="347" width="2" height="2" fill="#f5efe6"/>
    <rect x="472" y="337" width="176" height="4" fill="#6b7280"/>
    <rect x="472" y="345" width="136" height="4" fill="#9ca3af"/>

    <!-- row 4: PASS -->
    <rect x="440" y="364" width="22" height="18" fill="#15803d"/>
    <rect x="445" y="373" width="2" height="2" fill="#f5efe6"/>
    <rect x="447" y="375" width="2" height="2" fill="#f5efe6"/>
    <rect x="449" y="373" width="2" height="2" fill="#f5efe6"/>
    <rect x="451" y="371" width="2" height="2" fill="#f5efe6"/>
    <rect x="453" y="369" width="2" height="2" fill="#f5efe6"/>
    <rect x="455" y="367" width="2" height="2" fill="#f5efe6"/>
    <rect x="472" y="367" width="208" height="4" fill="#6b7280"/>
    <rect x="472" y="375" width="172" height="4" fill="#9ca3af"/>

    <!-- row 5: PASS -->
    <rect x="440" y="390" width="22" height="18" fill="#15803d"/>
    <rect x="445" y="399" width="2" height="2" fill="#f5efe6"/>
    <rect x="447" y="401" width="2" height="2" fill="#f5efe6"/>
    <rect x="449" y="399" width="2" height="2" fill="#f5efe6"/>
    <rect x="451" y="397" width="2" height="2" fill="#f5efe6"/>
    <rect x="453" y="395" width="2" height="2" fill="#f5efe6"/>
    <rect x="455" y="393" width="2" height="2" fill="#f5efe6"/>
    <rect x="472" y="393" width="182" height="4" fill="#6b7280"/>
    <rect x="472" y="401" width="152" height="4" fill="#9ca3af"/>

    <!-- row 6: PASS -->
    <rect x="440" y="416" width="22" height="18" fill="#15803d"/>
    <rect x="445" y="425" width="2" height="2" fill="#f5efe6"/>
    <rect x="447" y="427" width="2" height="2" fill="#f5efe6"/>
    <rect x="449" y="425" width="2" height="2" fill="#f5efe6"/>
    <rect x="451" y="423" width="2" height="2" fill="#f5efe6"/>
    <rect x="453" y="421" width="2" height="2" fill="#f5efe6"/>
    <rect x="455" y="419" width="2" height="2" fill="#f5efe6"/>
    <rect x="472" y="419" width="200" height="4" fill="#6b7280"/>
    <rect x="472" y="427" width="160" height="4" fill="#9ca3af"/>

    <!-- row 7: PASS -->
    <rect x="440" y="442" width="22" height="18" fill="#15803d"/>
    <rect x="445" y="451" width="2" height="2" fill="#f5efe6"/>
    <rect x="447" y="453" width="2" height="2" fill="#f5efe6"/>
    <rect x="449" y="451" width="2" height="2" fill="#f5efe6"/>
    <rect x="451" y="449" width="2" height="2" fill="#f5efe6"/>
    <rect x="453" y="447" width="2" height="2" fill="#f5efe6"/>
    <rect x="455" y="445" width="2" height="2" fill="#f5efe6"/>
    <rect x="472" y="445" width="188" height="4" fill="#6b7280"/>
    <rect x="472" y="453" width="140" height="4" fill="#9ca3af"/>

    <!-- footer classification chips: fix-layer taxonomy -->
    <g font-family="ui-monospace, SFMono-Regular, Menlo, monospace" font-size="11" fill="#1f2937" letter-spacing="1">
      <rect x="440" y="480" width="60" height="20" fill="#fde68a"/>
      <text x="450" y="494">SKILL</text>
      <rect x="508" y="480" width="68" height="20" fill="#bae6fd"/>
      <text x="516" y="494">RUBRIC</text>
      <rect x="584" y="480" width="60" height="20" fill="#fecaca"/>
      <text x="594" y="494">BRIEF</text>
      <rect x="652" y="480" width="72" height="20" fill="#bbf7d0"/>
      <text x="662" y="494">FIXTURE</text>
    </g>

    <!-- ===== MAGNIFIER overlay on row 3 (the failing rule) ===== -->
    <g transform="translate(656, 306)">
      <!-- frame (thick pixel ring) -->
      <rect x="10" y="0"  width="40" height="5" fill="#1f2937"/>
      <rect x="10" y="40" width="40" height="5" fill="#1f2937"/>
      <rect x="0"  y="10" width="5"  height="25" fill="#1f2937"/>
      <rect x="55" y="10" width="5"  height="25" fill="#1f2937"/>
      <rect x="5"  y="5"  width="5"  height="5" fill="#1f2937"/>
      <rect x="50" y="5"  width="5"  height="5" fill="#1f2937"/>
      <rect x="5"  y="35" width="5"  height="5" fill="#1f2937"/>
      <rect x="50" y="35" width="5"  height="5" fill="#1f2937"/>
      <!-- glass -->
      <rect x="10" y="5"  width="40" height="35" fill="#bae6fd"/>
      <!-- highlight streak -->
      <rect x="14" y="10" width="14" height="3" fill="#ffffff"/>
      <rect x="14" y="13" width="6"  height="3" fill="#ffffff"/>
      <!-- handle -->
      <rect x="55" y="40" width="5" height="5" fill="#1f2937"/>
      <rect x="60" y="45" width="5" height="5" fill="#1f2937"/>
      <rect x="65" y="50" width="5" height="5" fill="#1f2937"/>
      <rect x="70" y="55" width="5" height="5" fill="#1f2937"/>
      <rect x="75" y="60" width="8" height="5" fill="#1f2937"/>
    </g>
  </g>

  <!-- =========== ARROW 2 (FINDINGS -> FIX) =========== -->
  <g transform="translate(798, 362)" fill="#c2410c">
    <rect x="0"  y="6" width="46" height="6"/>
    <rect x="40" y="0" width="6"  height="6"/>
    <rect x="46" y="6" width="6"  height="6"/>
    <rect x="40" y="12" width="6" height="6"/>
  </g>

  <!-- =========== CARD 3: RULE-TEXT FIX (diff) =========== -->
  <!-- Position: x=860, y=210, w=270, h=320 -->
  <g>
    <!-- outer tile -->
    <rect x="860" y="210" width="270" height="320" fill="#ffffff"/>
    <rect x="860" y="210" width="270" height="5"   fill="#c9b58a"/>
    <rect x="860" y="525" width="270" height="5"   fill="#c9b58a"/>
    <rect x="860" y="210" width="5"   height="320" fill="#c9b58a"/>
    <rect x="1125" y="210" width="5"  height="320" fill="#c9b58a"/>
    <!-- inner panel -->
    <rect x="870" y="220" width="250" height="300" fill="#fdf7ea"/>

    <!-- title bar -->
    <g font-family="ui-monospace, SFMono-Regular, Menlo, monospace">
      <text x="886" y="250" font-size="18" font-weight="700" fill="#1f2937" letter-spacing="1">RULE-TEXT FIX</text>
      <text x="1102" y="250" font-size="12" fill="#9ca3af" text-anchor="end" letter-spacing="2">R3</text>
    </g>
    <rect x="880" y="262" width="230" height="2" fill="#c9b58a"/>

    <!-- diff gutter: line numbers -->
    <g font-family="ui-monospace, SFMono-Regular, Menlo, monospace" font-size="11" fill="#9ca3af">
      <text x="884" y="294">12</text>
      <text x="884" y="318">13</text>
      <text x="884" y="360">12</text>
      <text x="884" y="384">13</text>
      <text x="884" y="408">14</text>
    </g>

    <!-- BEFORE block (red/minus) -->
    <rect x="908" y="278" width="206" height="24" fill="#fee2e2"/>
    <g font-family="ui-monospace, SFMono-Regular, Menlo, monospace" font-size="16" font-weight="700" fill="#b91c1c">
      <text x="916" y="296">-</text>
    </g>
    <rect x="932" y="285" width="172" height="4" fill="#b91c1c"/>
    <rect x="932" y="293" width="116" height="4" fill="#b91c1c" opacity="0.55"/>

    <rect x="908" y="304" width="206" height="20" fill="#fee2e2"/>
    <g font-family="ui-monospace, SFMono-Regular, Menlo, monospace" font-size="16" font-weight="700" fill="#b91c1c">
      <text x="916" y="320">-</text>
    </g>
    <rect x="932" y="311" width="140" height="4" fill="#b91c1c" opacity="0.55"/>

    <!-- divider between before/after -->
    <rect x="880" y="334" width="230" height="3" fill="#eadfcf"/>

    <!-- AFTER block (green/plus) -->
    <rect x="908" y="344" width="206" height="24" fill="#dcfce7"/>
    <g font-family="ui-monospace, SFMono-Regular, Menlo, monospace" font-size="16" font-weight="700" fill="#15803d">
      <text x="916" y="362">+</text>
    </g>
    <rect x="932" y="351" width="180" height="4" fill="#15803d"/>
    <rect x="932" y="359" width="148" height="4" fill="#15803d" opacity="0.55"/>

    <rect x="908" y="370" width="206" height="20" fill="#dcfce7"/>
    <g font-family="ui-monospace, SFMono-Regular, Menlo, monospace" font-size="16" font-weight="700" fill="#15803d">
      <text x="916" y="386">+</text>
    </g>
    <rect x="932" y="377" width="156" height="4" fill="#15803d" opacity="0.55"/>

    <rect x="908" y="392" width="206" height="20" fill="#dcfce7"/>
    <g font-family="ui-monospace, SFMono-Regular, Menlo, monospace" font-size="16" font-weight="700" fill="#15803d">
      <text x="916" y="408">+</text>
    </g>
    <rect x="932" y="399" width="140" height="4" fill="#15803d" opacity="0.55"/>

    <!-- footer: classification chip -->
    <rect x="884" y="432" width="52" height="20" fill="#fde68a"/>
    <g font-family="ui-monospace, SFMono-Regular, Menlo, monospace" font-size="11" fill="#1f2937" letter-spacing="1">
      <text x="892" y="446">SKILL</text>
    </g>
    <rect x="944" y="438" width="156" height="4" fill="#6b7280"/>
    <rect x="944" y="446" width="108" height="4" fill="#9ca3af"/>

    <!-- WHY section -->
    <g font-family="ui-monospace, SFMono-Regular, Menlo, monospace" font-size="11" fill="#c2410c" letter-spacing="2" font-weight="700">
      <text x="884" y="478">WHY:</text>
    </g>
    <rect x="924" y="471" width="184" height="4" fill="#9ca3af"/>
    <rect x="884" y="484" width="224" height="4" fill="#9ca3af"/>
    <rect x="884" y="494" width="180" height="4" fill="#9ca3af"/>
  </g>

  <!-- =========== GROUND LINE under the three cards =========== -->
  <rect x="50" y="546" width="1100" height="2" fill="#eadfcf"/>
</svg>
