<svg xmlns="http://www.w3.org/2000/svg" viewBox="0 0 1200 627" role="img" aria-label="sub-agent-coordinator — many hands, one source of truth" shape-rendering="crispEdges" style="image-rendering: pixelated; image-rendering: crisp-edges;">
  <title>sub-agent-coordinator — many hands, one source of truth</title>
  <desc>Pixel-art banner for the sub-agent-coordinator Claude Code plugin: title at top, a TASK BRIEF card on the left listing scope/budget/done-when, a FAN-OUT card in the center showing one coordinator tile dispatching three parallel sub-agent tiles with status badges, and an INTEGRATE card on the right showing build/lint/test gates passing and a DONE seal. Chapter labels BRIEF · FAN-OUT · INTEGRATE below.</desc>

  <!-- background: soft warm paper with scanlines -->
  <defs>
    <pattern id="scan-li" x="0" y="0" width="8" height="8" patternUnits="userSpaceOnUse">
      <rect width="8" height="8" fill="#f5efe6"/>
      <rect y="6" width="8" height="2" fill="#eadfcf"/>
    </pattern>
  </defs>
  <rect width="1200" height="627" fill="url(#scan-li)"/>

  <!-- =========== TITLE BLOCK (top, centered) =========== -->
  <g font-family="ui-monospace, SFMono-Regular, Menlo, monospace" text-anchor="middle">
    <text x="600" y="88" font-size="44" font-weight="700" fill="#1f2937" letter-spacing="2">sub-agent-coordinator</text>
    <text x="600" y="124" font-size="20" fill="#6b7280">many hands, one source of truth</text>
    <text x="600" y="154" font-size="12" fill="#9ca3af" letter-spacing="4">BRIEF · FAN-OUT · INTEGRATE</text>
  </g>

  <!-- =========== SECTION LABELS (chapter markers under each card) =========== -->
  <g font-family="ui-monospace, SFMono-Regular, Menlo, monospace" text-anchor="middle">
    <text x="200" y="578" font-size="13" fill="#1f2937" letter-spacing="4">BRIEF</text>
    <text x="600" y="578" font-size="13" fill="#c2410c" font-weight="700" letter-spacing="4">FAN-OUT</text>
    <text x="995" y="578" font-size="13" fill="#1f2937" letter-spacing="4">INTEGRATE</text>
  </g>

  <!-- =========== CARD 1: TASK BRIEF (clipboard) =========== -->
  <!-- Position: x=70, y=210, w=260, h=320 -->
  <g>
    <!-- card paper -->
    <rect x="70" y="210" width="260" height="320" fill="#f3e7c9"/>
    <rect x="70" y="210" width="260" height="5"   fill="#b79a5c"/>
    <rect x="70" y="525" width="260" height="5"   fill="#b79a5c"/>
    <rect x="70" y="210" width="5"   height="320" fill="#b79a5c"/>
    <rect x="325" y="210" width="5"  height="320" fill="#b79a5c"/>
    <!-- clip at top -->
    <rect x="170" y="200" width="60" height="14" fill="#6b7280"/>
    <rect x="180" y="194" width="40" height="6"  fill="#6b7280"/>

    <!-- title bar "BRIEF" -->
    <rect x="76" y="222" width="248" height="34" fill="#fdf7ea"/>
    <g font-family="ui-monospace, SFMono-Regular, Menlo, monospace" fill="#1f2937">
      <text x="94" y="245" font-size="18" font-weight="700">TASK BRIEF</text>
    </g>
    <rect x="76" y="256" width="248" height="2" fill="#b79a5c"/>

    <!-- field: TASK -->
    <g font-family="ui-monospace, SFMono-Regular, Menlo, monospace" font-size="11" font-weight="700" fill="#c2410c" letter-spacing="2">
      <text x="94" y="284">TASK</text>
    </g>
    <rect x="138" y="277" width="172" height="4" fill="#6b7280"/>
    <rect x="138" y="285" width="140" height="4" fill="#9ca3af"/>

    <!-- field: SCOPE (with file bullets) -->
    <g font-family="ui-monospace, SFMono-Regular, Menlo, monospace" font-size="11" font-weight="700" fill="#c2410c" letter-spacing="2">
      <text x="94" y="314">SCOPE</text>
    </g>
    <rect x="146" y="307" width="8" height="8" fill="#1f2937"/>
    <rect x="160" y="310" width="148" height="4" fill="#6b7280"/>
    <rect x="146" y="323" width="8" height="8" fill="#1f2937"/>
    <rect x="160" y="326" width="132" height="4" fill="#6b7280"/>
    <rect x="146" y="339" width="8" height="8" fill="#1f2937"/>
    <rect x="160" y="342" width="156" height="4" fill="#6b7280"/>

    <!-- field: OUT OF SCOPE (red strike) -->
    <g font-family="ui-monospace, SFMono-Regular, Menlo, monospace" font-size="11" font-weight="700" fill="#b91c1c" letter-spacing="2">
      <text x="94" y="376">OUT</text>
    </g>
    <!-- X mark -->
    <rect x="146" y="370" width="8" height="2" fill="#b91c1c"/>
    <rect x="148" y="372" width="6" height="2" fill="#b91c1c"/>
    <rect x="150" y="374" width="4" height="2" fill="#b91c1c"/>
    <rect x="148" y="376" width="6" height="2" fill="#b91c1c"/>
    <rect x="146" y="378" width="8" height="2" fill="#b91c1c"/>
    <rect x="160" y="372" width="124" height="4" fill="#9ca3af"/>
    <rect x="160" y="380" width="100" height="4" fill="#9ca3af"/>

    <!-- field: BUDGET (chip with ticks) -->
    <g font-family="ui-monospace, SFMono-Regular, Menlo, monospace" font-size="11" font-weight="700" fill="#c2410c" letter-spacing="2">
      <text x="94" y="416">BUDGET</text>
    </g>
    <rect x="160" y="406" width="84" height="16" fill="#fde68a"/>
    <g font-family="ui-monospace, SFMono-Regular, Menlo, monospace" font-size="11" fill="#1f2937" letter-spacing="1">
      <text x="170" y="418">~30 calls</text>
    </g>

    <!-- field: DONE WHEN (gates) -->
    <g font-family="ui-monospace, SFMono-Regular, Menlo, monospace" font-size="11" font-weight="700" fill="#15803d" letter-spacing="2">
      <text x="94" y="450">DONE</text>
    </g>
    <!-- check 1 -->
    <rect x="148" y="444" width="2" height="2" fill="#15803d"/>
    <rect x="150" y="446" width="2" height="2" fill="#15803d"/>
    <rect x="152" y="448" width="2" height="2" fill="#15803d"/>
    <rect x="154" y="446" width="2" height="2" fill="#15803d"/>
    <rect x="156" y="444" width="2" height="2" fill="#15803d"/>
    <rect x="158" y="442" width="2" height="2" fill="#15803d"/>
    <rect x="160" y="440" width="2" height="2" fill="#15803d"/>
    <rect x="166" y="444" width="120" height="4" fill="#6b7280"/>
    <!-- check 2 -->
    <rect x="148" y="464" width="2" height="2" fill="#15803d"/>
    <rect x="150" y="466" width="2" height="2" fill="#15803d"/>
    <rect x="152" y="468" width="2" height="2" fill="#15803d"/>
    <rect x="154" y="466" width="2" height="2" fill="#15803d"/>
    <rect x="156" y="464" width="2" height="2" fill="#15803d"/>
    <rect x="158" y="462" width="2" height="2" fill="#15803d"/>
    <rect x="160" y="460" width="2" height="2" fill="#15803d"/>
    <rect x="166" y="464" width="100" height="4" fill="#6b7280"/>
    <!-- check 3 -->
    <rect x="148" y="484" width="2" height="2" fill="#15803d"/>
    <rect x="150" y="486" width="2" height="2" fill="#15803d"/>
    <rect x="152" y="488" width="2" height="2" fill="#15803d"/>
    <rect x="154" y="486" width="2" height="2" fill="#15803d"/>
    <rect x="156" y="484" width="2" height="2" fill="#15803d"/>
    <rect x="158" y="482" width="2" height="2" fill="#15803d"/>
    <rect x="160" y="480" width="2" height="2" fill="#15803d"/>
    <rect x="166" y="484" width="132" height="4" fill="#6b7280"/>

    <!-- footer meta -->
    <rect x="96"  y="506" width="56" height="4" fill="#c9b58a"/>
    <rect x="158" y="506" width="36" height="4" fill="#c9b58a"/>
  </g>

  <!-- =========== ARROW 1 (BRIEF -> FAN-OUT) =========== -->
  <g transform="translate(340, 362)" fill="#6b7280">
    <rect x="0"  y="6" width="60" height="6"/>
    <rect x="54" y="0" width="6"  height="6"/>
    <rect x="60" y="6" width="6"  height="6"/>
    <rect x="54" y="12" width="6" height="6"/>
  </g>

  <!-- =========== CARD 2: FAN-OUT (coordinator dispatching agents) =========== -->
  <!-- Position: x=412, y=210, w=376, h=320 -->
  <g>
    <!-- outer tile -->
    <rect x="412" y="210" width="376" height="320" fill="#ffffff"/>
    <rect x="412" y="210" width="376" height="5"   fill="#c9b58a"/>
    <rect x="412" y="525" width="376" height="5"   fill="#c9b58a"/>
    <rect x="412" y="210" width="5"   height="320" fill="#c9b58a"/>
    <rect x="783" y="210" width="5"   height="320" fill="#c9b58a"/>
    <!-- inner panel -->
    <rect x="422" y="220" width="356" height="300" fill="#fdf7ea"/>

    <!-- title bar -->
    <g font-family="ui-monospace, SFMono-Regular, Menlo, monospace">
      <text x="440" y="250" font-size="18" font-weight="700" fill="#1f2937" letter-spacing="1">FAN-OUT</text>
      <text x="760" y="250" font-size="12" fill="#9ca3af" text-anchor="end" letter-spacing="2">3 PARALLEL</text>
    </g>
    <rect x="436" y="262" width="328" height="2" fill="#c9b58a"/>

    <!-- =========== COORDINATOR TILE (top center) =========== -->
    <!-- Position: x=540, y=278, w=120, h=58 -->
    <g>
      <!-- tile border -->
      <rect x="540" y="278" width="120" height="58" fill="#1f2937"/>
      <!-- inner -->
      <rect x="544" y="282" width="112" height="50" fill="#fde68a"/>
      <!-- crown pixels (coordinator hat) -->
      <rect x="592" y="270" width="4" height="4" fill="#c2410c"/>
      <rect x="596" y="266" width="4" height="8" fill="#c2410c"/>
      <rect x="600" y="270" width="4" height="4" fill="#c2410c"/>
      <rect x="604" y="266" width="4" height="8" fill="#c2410c"/>
      <rect x="608" y="270" width="4" height="4" fill="#c2410c"/>
      <!-- text "COORDINATOR" -->
      <g font-family="ui-monospace, SFMono-Regular, Menlo, monospace" text-anchor="middle">
        <text x="600" y="304" font-size="11" font-weight="700" fill="#1f2937" letter-spacing="1">COORDINATOR</text>
        <text x="600" y="322" font-size="9" fill="#6b7280" letter-spacing="1">briefs &amp; verifies</text>
      </g>
    </g>

    <!-- =========== DISPATCH LINES (pixel arrows from coordinator to each agent) =========== -->
    <!-- vertical trunk down from coordinator center -->
    <rect x="598" y="336" width="4" height="20" fill="#c2410c"/>
    <!-- horizontal bar -->
    <rect x="478" y="354" width="246" height="4" fill="#c2410c"/>
    <!-- left drop to agent A -->
    <rect x="478" y="354" width="4" height="50" fill="#c2410c"/>
    <!-- middle drop to agent B -->
    <rect x="598" y="354" width="4" height="50" fill="#c2410c"/>
    <!-- right drop to agent C -->
    <rect x="720" y="354" width="4" height="50" fill="#c2410c"/>
    <!-- arrowhead A -->
    <rect x="476" y="404" width="8" height="4" fill="#c2410c"/>
    <rect x="478" y="408" width="4" height="4" fill="#c2410c"/>
    <!-- arrowhead B -->
    <rect x="596" y="404" width="8" height="4" fill="#c2410c"/>
    <rect x="598" y="408" width="4" height="4" fill="#c2410c"/>
    <!-- arrowhead C -->
    <rect x="718" y="404" width="8" height="4" fill="#c2410c"/>
    <rect x="720" y="408" width="4" height="4" fill="#c2410c"/>

    <!-- =========== SUB-AGENT A (left) =========== -->
    <g>
      <rect x="438" y="416" width="88" height="74" fill="#1f2937"/>
      <rect x="442" y="420" width="80" height="66" fill="#bae6fd"/>
      <!-- agent label -->
      <g font-family="ui-monospace, SFMono-Regular, Menlo, monospace" text-anchor="middle">
        <text x="482" y="436" font-size="11" font-weight="700" fill="#1f2937" letter-spacing="1">AGENT A</text>
      </g>
      <!-- task lines -->
      <rect x="450" y="444" width="64" height="3" fill="#6b7280"/>
      <rect x="450" y="450" width="48" height="3" fill="#9ca3af"/>
      <rect x="450" y="456" width="56" height="3" fill="#9ca3af"/>
      <!-- status badge: DONE -->
      <rect x="450" y="466" width="64" height="14" fill="#15803d"/>
      <!-- check inside badge -->
      <rect x="456" y="473" width="2" height="2" fill="#fdf7ea"/>
      <rect x="458" y="475" width="2" height="2" fill="#fdf7ea"/>
      <rect x="460" y="477" width="2" height="2" fill="#fdf7ea"/>
      <rect x="462" y="475" width="2" height="2" fill="#fdf7ea"/>
      <rect x="464" y="473" width="2" height="2" fill="#fdf7ea"/>
      <rect x="466" y="471" width="2" height="2" fill="#fdf7ea"/>
      <rect x="468" y="469" width="2" height="2" fill="#fdf7ea"/>
      <g font-family="ui-monospace, SFMono-Regular, Menlo, monospace" font-size="9" fill="#fdf7ea" letter-spacing="1">
        <text x="476" y="476">DONE</text>
      </g>
    </g>

    <!-- =========== SUB-AGENT B (center) =========== -->
    <g>
      <rect x="558" y="416" width="88" height="74" fill="#1f2937"/>
      <rect x="562" y="420" width="80" height="66" fill="#bae6fd"/>
      <!-- agent label -->
      <g font-family="ui-monospace, SFMono-Regular, Menlo, monospace" text-anchor="middle">
        <text x="602" y="436" font-size="11" font-weight="700" fill="#1f2937" letter-spacing="1">AGENT B</text>
      </g>
      <!-- task lines -->
      <rect x="570" y="444" width="64" height="3" fill="#6b7280"/>
      <rect x="570" y="450" width="56" height="3" fill="#9ca3af"/>
      <rect x="570" y="456" width="48" height="3" fill="#9ca3af"/>
      <!-- status badge: WIP (yellow) -->
      <rect x="570" y="466" width="64" height="14" fill="#fde68a"/>
      <!-- spinner dot pattern -->
      <rect x="576" y="471" width="2" height="2" fill="#c2410c"/>
      <rect x="580" y="471" width="2" height="2" fill="#c2410c"/>
      <rect x="584" y="471" width="2" height="2" fill="#c2410c"/>
      <rect x="588" y="473" width="2" height="2" fill="#c2410c"/>
      <g font-family="ui-monospace, SFMono-Regular, Menlo, monospace" font-size="9" fill="#1f2937" letter-spacing="1">
        <text x="594" y="476">WIP</text>
      </g>
    </g>

    <!-- =========== SUB-AGENT C (right) =========== -->
    <g>
      <rect x="678" y="416" width="88" height="74" fill="#1f2937"/>
      <rect x="682" y="420" width="80" height="66" fill="#bae6fd"/>
      <!-- agent label -->
      <g font-family="ui-monospace, SFMono-Regular, Menlo, monospace" text-anchor="middle">
        <text x="722" y="436" font-size="11" font-weight="700" fill="#1f2937" letter-spacing="1">AGENT C</text>
      </g>
      <!-- task lines -->
      <rect x="690" y="444" width="64" height="3" fill="#6b7280"/>
      <rect x="690" y="450" width="48" height="3" fill="#9ca3af"/>
      <rect x="690" y="456" width="60" height="3" fill="#9ca3af"/>
      <!-- status badge: DONE -->
      <rect x="690" y="466" width="64" height="14" fill="#15803d"/>
      <!-- check inside badge -->
      <rect x="696" y="473" width="2" height="2" fill="#fdf7ea"/>
      <rect x="698" y="475" width="2" height="2" fill="#fdf7ea"/>
      <rect x="700" y="477" width="2" height="2" fill="#fdf7ea"/>
      <rect x="702" y="475" width="2" height="2" fill="#fdf7ea"/>
      <rect x="704" y="473" width="2" height="2" fill="#fdf7ea"/>
      <rect x="706" y="471" width="2" height="2" fill="#fdf7ea"/>
      <rect x="708" y="469" width="2" height="2" fill="#fdf7ea"/>
      <g font-family="ui-monospace, SFMono-Regular, Menlo, monospace" font-size="9" fill="#fdf7ea" letter-spacing="1">
        <text x="716" y="476">DONE</text>
      </g>
    </g>

    <!-- footer chips: pattern taxonomy -->
    <g font-family="ui-monospace, SFMono-Regular, Menlo, monospace" font-size="11" fill="#1f2937" letter-spacing="1">
      <rect x="440" y="500" width="76" height="14" fill="#fde68a"/>
      <text x="450" y="511" font-size="9">FAN-OUT</text>
      <rect x="524" y="500" width="80" height="14" fill="#bae6fd"/>
      <text x="534" y="511" font-size="9">PIPELINE</text>
      <rect x="612" y="500" width="84" height="14" fill="#fecaca"/>
      <text x="622" y="511" font-size="9">REVIEW</text>
      <rect x="704" y="500" width="60" height="14" fill="#bbf7d0"/>
      <text x="712" y="511" font-size="9">SPEC</text>
    </g>
  </g>

  <!-- =========== ARROW 2 (FAN-OUT -> INTEGRATE) =========== -->
  <g transform="translate(798, 362)" fill="#c2410c">
    <rect x="0"  y="6" width="46" height="6"/>
    <rect x="40" y="0" width="6"  height="6"/>
    <rect x="46" y="6" width="6"  height="6"/>
    <rect x="40" y="12" width="6" height="6"/>
  </g>

  <!-- =========== CARD 3: INTEGRATE (gates pass + DONE seal) =========== -->
  <!-- Position: x=860, y=210, w=270, h=320 -->
  <g>
    <!-- outer tile -->
    <rect x="860" y="210" width="270" height="320" fill="#ffffff"/>
    <rect x="860" y="210" width="270" height="5"   fill="#c9b58a"/>
    <rect x="860" y="525" width="270" height="5"   fill="#c9b58a"/>
    <rect x="860" y="210" width="5"   height="320" fill="#c9b58a"/>
    <rect x="1125" y="210" width="5"  height="320" fill="#c9b58a"/>
    <!-- inner panel -->
    <rect x="870" y="220" width="250" height="300" fill="#fdf7ea"/>

    <!-- title bar -->
    <g font-family="ui-monospace, SFMono-Regular, Menlo, monospace">
      <text x="886" y="250" font-size="18" font-weight="700" fill="#1f2937" letter-spacing="1">INTEGRATE</text>
      <text x="1102" y="250" font-size="12" fill="#9ca3af" text-anchor="end" letter-spacing="2">3/3</text>
    </g>
    <rect x="880" y="262" width="230" height="2" fill="#c9b58a"/>

    <!-- gate row 1: BUILD pass -->
    <rect x="884" y="282" width="22" height="18" fill="#15803d"/>
    <rect x="889" y="291" width="2" height="2" fill="#f5efe6"/>
    <rect x="891" y="293" width="2" height="2" fill="#f5efe6"/>
    <rect x="893" y="291" width="2" height="2" fill="#f5efe6"/>
    <rect x="895" y="289" width="2" height="2" fill="#f5efe6"/>
    <rect x="897" y="287" width="2" height="2" fill="#f5efe6"/>
    <rect x="899" y="285" width="2" height="2" fill="#f5efe6"/>
    <g font-family="ui-monospace, SFMono-Regular, Menlo, monospace" font-size="13" font-weight="700" fill="#1f2937" letter-spacing="1">
      <text x="916" y="295">BUILD</text>
    </g>
    <rect x="978" y="289" width="120" height="4" fill="#9ca3af"/>

    <!-- gate row 2: LINT pass -->
    <rect x="884" y="312" width="22" height="18" fill="#15803d"/>
    <rect x="889" y="321" width="2" height="2" fill="#f5efe6"/>
    <rect x="891" y="323" width="2" height="2" fill="#f5efe6"/>
    <rect x="893" y="321" width="2" height="2" fill="#f5efe6"/>
    <rect x="895" y="319" width="2" height="2" fill="#f5efe6"/>
    <rect x="897" y="317" width="2" height="2" fill="#f5efe6"/>
    <rect x="899" y="315" width="2" height="2" fill="#f5efe6"/>
    <g font-family="ui-monospace, SFMono-Regular, Menlo, monospace" font-size="13" font-weight="700" fill="#1f2937" letter-spacing="1">
      <text x="916" y="325">LINT</text>
    </g>
    <rect x="978" y="319" width="120" height="4" fill="#9ca3af"/>

    <!-- gate row 3: TEST pass -->
    <rect x="884" y="342" width="22" height="18" fill="#15803d"/>
    <rect x="889" y="351" width="2" height="2" fill="#f5efe6"/>
    <rect x="891" y="353" width="2" height="2" fill="#f5efe6"/>
    <rect x="893" y="351" width="2" height="2" fill="#f5efe6"/>
    <rect x="895" y="349" width="2" height="2" fill="#f5efe6"/>
    <rect x="897" y="347" width="2" height="2" fill="#f5efe6"/>
    <rect x="899" y="345" width="2" height="2" fill="#f5efe6"/>
    <g font-family="ui-monospace, SFMono-Regular, Menlo, monospace" font-size="13" font-weight="700" fill="#1f2937" letter-spacing="1">
      <text x="916" y="355">TEST</text>
    </g>
    <rect x="978" y="349" width="120" height="4" fill="#9ca3af"/>

    <!-- divider -->
    <rect x="880" y="376" width="230" height="3" fill="#eadfcf"/>

    <!-- merge / unblock list -->
    <g font-family="ui-monospace, SFMono-Regular, Menlo, monospace" font-size="11" font-weight="700" fill="#c2410c" letter-spacing="2">
      <text x="884" y="402">MERGED</text>
    </g>
    <rect x="948" y="395" width="156" height="4" fill="#6b7280"/>
    <rect x="948" y="403" width="120" height="4" fill="#9ca3af"/>

    <g font-family="ui-monospace, SFMono-Regular, Menlo, monospace" font-size="11" font-weight="700" fill="#c2410c" letter-spacing="2">
      <text x="884" y="430">UNBLOCK</text>
    </g>
    <rect x="956" y="423" width="148" height="4" fill="#6b7280"/>
    <rect x="956" y="431" width="100" height="4" fill="#9ca3af"/>

    <!-- =========== DONE SEAL (bottom-right pixel stamp) =========== -->
    <g transform="translate(998, 452)">
      <!-- outer ring (octagonal stamp) -->
      <rect x="14" y="0"  width="36" height="6"  fill="#15803d"/>
      <rect x="14" y="58" width="36" height="6"  fill="#15803d"/>
      <rect x="0"  y="14" width="6"  height="36" fill="#15803d"/>
      <rect x="58" y="14" width="6"  height="36" fill="#15803d"/>
      <rect x="6"  y="6"  width="8"  height="8" fill="#15803d"/>
      <rect x="50" y="6"  width="8"  height="8" fill="#15803d"/>
      <rect x="6"  y="50" width="8"  height="8" fill="#15803d"/>
      <rect x="50" y="50" width="8"  height="8" fill="#15803d"/>
      <!-- interior fill -->
      <rect x="14" y="6"  width="36" height="52" fill="#dcfce7"/>
      <rect x="6"  y="14" width="8"  height="36" fill="#dcfce7"/>
      <rect x="50" y="14" width="8"  height="36" fill="#dcfce7"/>
      <!-- DONE text -->
      <g font-family="ui-monospace, SFMono-Regular, Menlo, monospace" text-anchor="middle">
        <text x="32" y="38" font-size="14" font-weight="700" fill="#15803d" letter-spacing="1">DONE</text>
      </g>
    </g>

    <!-- WHY tag in lower-left -->
    <g font-family="ui-monospace, SFMono-Regular, Menlo, monospace" font-size="11" fill="#c2410c" letter-spacing="2" font-weight="700">
      <text x="884" y="478">WHY:</text>
    </g>
    <rect x="924" y="471" width="60" height="4" fill="#9ca3af"/>
    <rect x="884" y="488" width="100" height="4" fill="#9ca3af"/>
    <rect x="884" y="498" width="80" height="4" fill="#9ca3af"/>
  </g>

  <!-- =========== GROUND LINE under the three cards =========== -->
  <rect x="50" y="546" width="1100" height="2" fill="#eadfcf"/>
</svg>
