<svg xmlns="http://www.w3.org/2000/svg" viewBox="0 0 1600 467" role="img" aria-label="team-composer — every role earns its seat" shape-rendering="crispEdges" style="image-rendering: pixelated; image-rendering: crisp-edges;">
  <title>team-composer — every role earns its seat</title>
  <desc>Pixel-art banner for the team-composer Claude Code plugin: five color-coded team members in a row with speech bubbles, two "zigzag" disagreement marks between them, a shielded (non-droppable) role, and a three-round process ribbon below representing Opening, Rebuttals, Synthesis.</desc>

  <!-- background: soft warm paper with scanlines -->
  <defs>
    <pattern id="scan" x="0" y="0" width="8" height="8" patternUnits="userSpaceOnUse">
      <rect width="8" height="8" fill="#f5efe6"/>
      <rect y="6" width="8" height="2" fill="#eadfcf"/>
    </pattern>
  </defs>
  <rect width="1600" height="467" fill="url(#scan)"/>

  <!-- =========== TITLE BLOCK (top-left) =========== -->
  <g font-family="ui-monospace, SFMono-Regular, Menlo, monospace">
    <text x="64" y="72" font-size="38" font-weight="700" fill="#1f2937" letter-spacing="1">team-composer</text>
    <text x="64" y="104" font-size="18" fill="#6b7280">every role earns its seat.</text>
    <text x="64" y="130" font-size="11" fill="#9ca3af" letter-spacing="3">3 ROUNDS · REAL DISAGREEMENT · DISSENT NAMED</text>
  </g>

  <!-- =========== CHARACTER DEFINITIONS =========== -->
  <!-- All characters sit on y_base=184 (top of head), 128 tall total. Spaced 220 apart horizontally, centered around x=1000 (shifted right so title has breathing room) -->
  <!-- Character bounds: 80w x 128h -->

  <!-- ==== Character 1: PM (orange) ==== -->
  <g transform="translate(540, 184)">
    <!-- speech bubble above -->
    <g>
      <rect x="4" y="-56" width="72" height="36" fill="#ffffff"/>
      <rect x="4" y="-56" width="72" height="4" fill="#c2410c"/>
      <rect x="4" y="-24" width="72" height="4" fill="#c2410c"/>
      <rect x="4" y="-56" width="4" height="36" fill="#c2410c"/>
      <rect x="72" y="-56" width="4" height="36" fill="#c2410c"/>
      <!-- tail -->
      <rect x="36" y="-20" width="4" height="4" fill="#c2410c"/>
      <rect x="40" y="-16" width="4" height="4" fill="#c2410c"/>
      <!-- content: orange dot + list strokes -->
      <rect x="14" y="-46" width="8" height="4" fill="#c2410c"/>
      <rect x="26" y="-44" width="36" height="3" fill="#9ca3af"/>
      <rect x="14" y="-34" width="8" height="4" fill="#c2410c"/>
      <rect x="26" y="-32" width="28" height="3" fill="#9ca3af"/>
    </g>
    <!-- head -->
    <rect x="20" y="8" width="40" height="32" fill="#fde68a"/>
    <rect x="20" y="8" width="40" height="6" fill="#fcd34d"/>
    <!-- hair: flat fringe -->
    <rect x="20" y="8" width="40" height="6" fill="#7c4b2a"/>
    <rect x="16" y="14" width="4" height="10" fill="#7c4b2a"/>
    <rect x="60" y="14" width="4" height="10" fill="#7c4b2a"/>
    <!-- eyes -->
    <rect x="28" y="22" width="4" height="4" fill="#1f2937"/>
    <rect x="48" y="22" width="4" height="4" fill="#1f2937"/>
    <!-- mouth -->
    <rect x="34" y="32" width="12" height="2" fill="#1f2937"/>
    <!-- body/shirt in ORANGE -->
    <rect x="6" y="40" width="68" height="64" fill="#c2410c"/>
    <rect x="6" y="40" width="68" height="6" fill="#ea580c"/>
    <!-- clipboard icon on chest -->
    <rect x="28" y="58" width="24" height="28" fill="#fdf7ea"/>
    <rect x="28" y="58" width="24" height="2" fill="#7c4b2a"/>
    <rect x="36" y="56" width="8" height="4" fill="#1f2937"/>
    <rect x="32" y="66" width="16" height="2" fill="#9ca3af"/>
    <rect x="32" y="72" width="14" height="2" fill="#9ca3af"/>
    <rect x="32" y="78" width="12" height="2" fill="#9ca3af"/>
    <!-- legs -->
    <rect x="14" y="104" width="16" height="24" fill="#1f2937"/>
    <rect x="50" y="104" width="16" height="24" fill="#1f2937"/>
  </g>

  <!-- ==== Character 2: Engineer (blue) ==== -->
  <g transform="translate(760, 184)">
    <!-- speech bubble -->
    <g>
      <rect x="4" y="-56" width="72" height="36" fill="#ffffff"/>
      <rect x="4" y="-56" width="72" height="4" fill="#1d4ed8"/>
      <rect x="4" y="-24" width="72" height="4" fill="#1d4ed8"/>
      <rect x="4" y="-56" width="4" height="36" fill="#1d4ed8"/>
      <rect x="72" y="-56" width="4" height="36" fill="#1d4ed8"/>
      <rect x="36" y="-20" width="4" height="4" fill="#1d4ed8"/>
      <rect x="40" y="-16" width="4" height="4" fill="#1d4ed8"/>
      <!-- content: curly braces -->
      <rect x="18" y="-48" width="4" height="4" fill="#1d4ed8"/>
      <rect x="14" y="-44" width="4" height="12" fill="#1d4ed8"/>
      <rect x="18" y="-32" width="4" height="4" fill="#1d4ed8"/>
      <rect x="58" y="-48" width="4" height="4" fill="#1d4ed8"/>
      <rect x="62" y="-44" width="4" height="12" fill="#1d4ed8"/>
      <rect x="58" y="-32" width="4" height="4" fill="#1d4ed8"/>
      <rect x="32" y="-40" width="12" height="2" fill="#9ca3af"/>
    </g>
    <!-- head -->
    <rect x="20" y="8" width="40" height="32" fill="#fde68a"/>
    <rect x="20" y="8" width="40" height="6" fill="#fcd34d"/>
    <!-- goggles strap -->
    <rect x="20" y="14" width="40" height="4" fill="#1f2937"/>
    <rect x="22" y="18" width="12" height="8" fill="#0ea5e9"/>
    <rect x="46" y="18" width="12" height="8" fill="#0ea5e9"/>
    <rect x="22" y="18" width="12" height="2" fill="#bae6fd"/>
    <rect x="46" y="18" width="12" height="2" fill="#bae6fd"/>
    <!-- mouth -->
    <rect x="34" y="32" width="12" height="2" fill="#1f2937"/>
    <!-- body in BLUE -->
    <rect x="6" y="40" width="68" height="64" fill="#1d4ed8"/>
    <rect x="6" y="40" width="68" height="6" fill="#3b82f6"/>
    <!-- gear icon on chest -->
    <g transform="translate(24, 56)">
      <rect x="12" y="4" width="8" height="2" fill="#fde68a"/>
      <rect x="12" y="24" width="8" height="2" fill="#fde68a"/>
      <rect x="2" y="14" width="2" height="8" fill="#fde68a"/>
      <rect x="28" y="14" width="2" height="8" fill="#fde68a"/>
      <rect x="8" y="10" width="16" height="10" fill="#fde68a"/>
      <rect x="14" y="12" width="4" height="6" fill="#1d4ed8"/>
    </g>
    <!-- legs -->
    <rect x="14" y="104" width="16" height="24" fill="#1f2937"/>
    <rect x="50" y="104" width="16" height="24" fill="#1f2937"/>
  </g>

  <!-- =========== DISAGREEMENT ZIGZAG between char 2 and 3 (centered ~870) ============ -->
  <g transform="translate(860, 152)" fill="#c2410c">
    <rect x="0"  y="0"  width="8" height="8"/>
    <rect x="8"  y="8"  width="8" height="8"/>
    <rect x="0"  y="16" width="8" height="8"/>
    <rect x="8"  y="24" width="8" height="8"/>
    <rect x="0"  y="32" width="8" height="8"/>
  </g>

  <!-- ==== Character 3: Designer (purple) ==== -->
  <g transform="translate(980, 184)">
    <!-- speech bubble -->
    <g>
      <rect x="4" y="-56" width="72" height="36" fill="#ffffff"/>
      <rect x="4" y="-56" width="72" height="4" fill="#6d28d9"/>
      <rect x="4" y="-24" width="72" height="4" fill="#6d28d9"/>
      <rect x="4" y="-56" width="4" height="36" fill="#6d28d9"/>
      <rect x="72" y="-56" width="4" height="36" fill="#6d28d9"/>
      <rect x="36" y="-20" width="4" height="4" fill="#6d28d9"/>
      <rect x="40" y="-16" width="4" height="4" fill="#6d28d9"/>
      <!-- color swatches -->
      <rect x="12" y="-46" width="12" height="10" fill="#c2410c"/>
      <rect x="28" y="-46" width="12" height="10" fill="#1d4ed8"/>
      <rect x="44" y="-46" width="12" height="10" fill="#15803d"/>
      <rect x="12" y="-34" width="44" height="3" fill="#9ca3af"/>
      <rect x="12" y="-28" width="32" height="3" fill="#9ca3af"/>
    </g>
    <!-- head -->
    <rect x="20" y="8" width="40" height="32" fill="#fde68a"/>
    <rect x="20" y="8" width="40" height="6" fill="#fcd34d"/>
    <!-- hair: swept bangs, purple tint -->
    <rect x="20" y="8" width="40" height="8" fill="#6d28d9"/>
    <rect x="16" y="14" width="6" height="14" fill="#6d28d9"/>
    <rect x="58" y="14" width="6" height="14" fill="#6d28d9"/>
    <rect x="28" y="14" width="4" height="4" fill="#6d28d9"/>
    <!-- eyes -->
    <rect x="28" y="24" width="4" height="4" fill="#1f2937"/>
    <rect x="48" y="24" width="4" height="4" fill="#1f2937"/>
    <!-- mouth -->
    <rect x="34" y="32" width="12" height="2" fill="#1f2937"/>
    <!-- body in PURPLE -->
    <rect x="6" y="40" width="68" height="64" fill="#6d28d9"/>
    <rect x="6" y="40" width="68" height="6" fill="#8b5cf6"/>
    <!-- pencil icon -->
    <rect x="28" y="60" width="24" height="6" fill="#fde68a"/>
    <rect x="28" y="60" width="4" height="6" fill="#a16207"/>
    <rect x="48" y="60" width="4" height="6" fill="#1f2937"/>
    <rect x="28" y="72" width="24" height="18" fill="#fdf7ea"/>
    <rect x="32" y="78" width="16" height="2" fill="#9ca3af"/>
    <rect x="32" y="84" width="12" height="2" fill="#9ca3af"/>
    <!-- legs -->
    <rect x="14" y="104" width="16" height="24" fill="#1f2937"/>
    <rect x="50" y="104" width="16" height="24" fill="#1f2937"/>
  </g>

  <!-- ==== Character 4: Legal (teal) — NON-DROPPABLE (shield above) ==== -->
  <g transform="translate(1200, 184)">
    <!-- SHIELD (non-droppable marker), positioned above bubble -->
    <g transform="translate(26, -92)">
      <!-- shield body: gold -->
      <rect x="4"  y="0"  width="20" height="4" fill="#eab308"/>
      <rect x="2"  y="4"  width="24" height="16" fill="#eab308"/>
      <rect x="4"  y="20" width="20" height="4" fill="#eab308"/>
      <rect x="8"  y="24" width="12" height="4" fill="#eab308"/>
      <rect x="12" y="28" width="4" height="4" fill="#eab308"/>
      <!-- shield outline -->
      <rect x="4"  y="0"  width="20" height="2" fill="#854d0e"/>
      <rect x="2"  y="4"  width="2"  height="16" fill="#854d0e"/>
      <rect x="24" y="4"  width="2"  height="16" fill="#854d0e"/>
      <!-- checkmark inside shield -->
      <rect x="9"  y="12" width="3" height="3" fill="#1f2937"/>
      <rect x="12" y="15" width="3" height="3" fill="#1f2937"/>
      <rect x="15" y="12" width="3" height="3" fill="#1f2937"/>
      <rect x="18" y="9"  width="3" height="3" fill="#1f2937"/>
    </g>
    <!-- speech bubble -->
    <g>
      <rect x="4" y="-56" width="72" height="36" fill="#ffffff"/>
      <rect x="4" y="-56" width="72" height="4" fill="#0e7490"/>
      <rect x="4" y="-24" width="72" height="4" fill="#0e7490"/>
      <rect x="4" y="-56" width="4" height="36" fill="#0e7490"/>
      <rect x="72" y="-56" width="4" height="36" fill="#0e7490"/>
      <rect x="36" y="-20" width="4" height="4" fill="#0e7490"/>
      <rect x="40" y="-16" width="4" height="4" fill="#0e7490"/>
      <!-- exclamation mark -->
      <rect x="36" y="-50" width="8" height="18" fill="#0e7490"/>
      <rect x="36" y="-28" width="8" height="6" fill="#0e7490"/>
    </g>
    <!-- head -->
    <rect x="20" y="8" width="40" height="32" fill="#fde68a"/>
    <rect x="20" y="8" width="40" height="6" fill="#fcd34d"/>
    <!-- hair: neat side-parting -->
    <rect x="20" y="8" width="40" height="8" fill="#374151"/>
    <rect x="18" y="14" width="4" height="8" fill="#374151"/>
    <rect x="58" y="14" width="4" height="8" fill="#374151"/>
    <!-- glasses -->
    <rect x="26" y="20" width="8" height="8" fill="#ffffff"/>
    <rect x="46" y="20" width="8" height="8" fill="#ffffff"/>
    <rect x="34" y="22" width="12" height="2" fill="#1f2937"/>
    <rect x="26" y="20" width="8" height="2" fill="#1f2937"/>
    <rect x="26" y="26" width="8" height="2" fill="#1f2937"/>
    <rect x="26" y="20" width="2" height="8" fill="#1f2937"/>
    <rect x="32" y="20" width="2" height="8" fill="#1f2937"/>
    <rect x="46" y="20" width="8" height="2" fill="#1f2937"/>
    <rect x="46" y="26" width="8" height="2" fill="#1f2937"/>
    <rect x="46" y="20" width="2" height="8" fill="#1f2937"/>
    <rect x="52" y="20" width="2" height="8" fill="#1f2937"/>
    <!-- eyes behind glasses -->
    <rect x="28" y="22" width="2" height="2" fill="#1f2937"/>
    <rect x="48" y="22" width="2" height="2" fill="#1f2937"/>
    <!-- mouth (serious) -->
    <rect x="34" y="34" width="12" height="2" fill="#1f2937"/>
    <!-- body in TEAL -->
    <rect x="6" y="40" width="68" height="64" fill="#0e7490"/>
    <rect x="6" y="40" width="68" height="6" fill="#0891b2"/>
    <!-- scales of justice icon -->
    <g transform="translate(20, 56)">
      <rect x="18" y="0" width="4" height="28" fill="#fde68a"/>
      <rect x="4"  y="6" width="32" height="2" fill="#fde68a"/>
      <rect x="4"  y="10" width="10" height="6" fill="#fde68a"/>
      <rect x="26" y="10" width="10" height="6" fill="#fde68a"/>
      <rect x="14" y="28" width="12" height="2" fill="#fde68a"/>
    </g>
    <!-- legs -->
    <rect x="14" y="104" width="16" height="24" fill="#1f2937"/>
    <rect x="50" y="104" width="16" height="24" fill="#1f2937"/>
  </g>

  <!-- =========== DISAGREEMENT ZIGZAG between char 4 and 5 ============ -->
  <g transform="translate(1300, 152)" fill="#c2410c">
    <rect x="0"  y="0"  width="8" height="8"/>
    <rect x="8"  y="8"  width="8" height="8"/>
    <rect x="0"  y="16" width="8" height="8"/>
    <rect x="8"  y="24" width="8" height="8"/>
    <rect x="0"  y="32" width="8" height="8"/>
  </g>

  <!-- ==== Character 5: Researcher (slate) ==== -->
  <g transform="translate(1420, 184)">
    <!-- speech bubble -->
    <g>
      <rect x="4" y="-56" width="72" height="36" fill="#ffffff"/>
      <rect x="4" y="-56" width="72" height="4" fill="#475569"/>
      <rect x="4" y="-24" width="72" height="4" fill="#475569"/>
      <rect x="4" y="-56" width="4" height="36" fill="#475569"/>
      <rect x="72" y="-56" width="4" height="36" fill="#475569"/>
      <rect x="36" y="-20" width="4" height="4" fill="#475569"/>
      <rect x="40" y="-16" width="4" height="4" fill="#475569"/>
      <!-- question mark -->
      <rect x="32" y="-50" width="16" height="4" fill="#475569"/>
      <rect x="44" y="-46" width="4" height="6" fill="#475569"/>
      <rect x="36" y="-40" width="12" height="4" fill="#475569"/>
      <rect x="36" y="-36" width="4" height="6" fill="#475569"/>
      <rect x="36" y="-28" width="4" height="4" fill="#475569"/>
    </g>
    <!-- head -->
    <rect x="20" y="8" width="40" height="32" fill="#fde68a"/>
    <rect x="20" y="8" width="40" height="6" fill="#fcd34d"/>
    <!-- hair: short grey -->
    <rect x="20" y="8" width="40" height="6" fill="#94a3b8"/>
    <!-- eyes -->
    <rect x="28" y="22" width="4" height="4" fill="#1f2937"/>
    <rect x="48" y="22" width="4" height="4" fill="#1f2937"/>
    <!-- mouth -->
    <rect x="34" y="32" width="12" height="2" fill="#1f2937"/>
    <!-- body in SLATE -->
    <rect x="6" y="40" width="68" height="64" fill="#475569"/>
    <rect x="6" y="40" width="68" height="6" fill="#64748b"/>
    <!-- magnifier icon -->
    <g transform="translate(22, 56)">
      <rect x="4"  y="4"  width="4" height="4" fill="#fde68a"/>
      <rect x="8"  y="0"  width="16" height="4" fill="#fde68a"/>
      <rect x="8"  y="12" width="16" height="4" fill="#fde68a"/>
      <rect x="24" y="0"  width="4" height="16" fill="#fde68a"/>
      <rect x="12" y="4"  width="12" height="8" fill="#bae6fd"/>
      <rect x="28" y="16" width="4" height="4" fill="#fde68a"/>
      <rect x="32" y="20" width="4" height="4" fill="#fde68a"/>
    </g>
    <!-- legs -->
    <rect x="14" y="104" width="16" height="24" fill="#1f2937"/>
    <rect x="50" y="104" width="16" height="24" fill="#1f2937"/>
  </g>

  <!-- =========== GROUND LINE under characters =========== -->
  <rect x="520" y="316" width="980" height="2" fill="#eadfcf"/>

  <!-- =========== PROCESS RIBBON (bottom) — 3 rounds =========== -->
  <g transform="translate(480, 380)">
    <!-- Round 1 circle -->
    <g transform="translate(0, 0)">
      <rect x="0"  y="0"  width="32" height="32" fill="#1f2937"/>
      <rect x="4"  y="-4" width="24" height="4"  fill="#1f2937"/>
      <rect x="4"  y="32" width="24" height="4"  fill="#1f2937"/>
      <rect x="-4" y="4"  width="4"  height="24" fill="#1f2937"/>
      <rect x="32" y="4"  width="4"  height="24" fill="#1f2937"/>
      <!-- number 1 -->
      <rect x="14" y="8"  width="4" height="16" fill="#f5efe6"/>
      <rect x="10" y="10" width="4" height="4"  fill="#f5efe6"/>
      <rect x="10" y="24" width="12" height="4" fill="#f5efe6"/>
    </g>
    <!-- label under circle 1 -->
    <g font-family="ui-monospace, SFMono-Regular, Menlo, monospace" fill="#1f2937">
      <text x="-16" y="54" font-size="11" letter-spacing="2">OPENING</text>
    </g>
    <!-- arrow 1 -->
    <g transform="translate(52, 10)" fill="#6b7280">
      <rect x="0"  y="6" width="72" height="4"/>
      <rect x="64" y="2" width="4"  height="4"/>
      <rect x="68" y="6" width="4"  height="4"/>
      <rect x="64" y="10" width="4" height="4"/>
    </g>

    <!-- Round 2 circle -->
    <g transform="translate(180, 0)">
      <rect x="0"  y="0"  width="32" height="32" fill="#c2410c"/>
      <rect x="4"  y="-4" width="24" height="4"  fill="#c2410c"/>
      <rect x="4"  y="32" width="24" height="4"  fill="#c2410c"/>
      <rect x="-4" y="4"  width="4"  height="24" fill="#c2410c"/>
      <rect x="32" y="4"  width="4"  height="24" fill="#c2410c"/>
      <!-- number 2 -->
      <rect x="8"  y="8"  width="16" height="4" fill="#f5efe6"/>
      <rect x="20" y="8"  width="4"  height="8" fill="#f5efe6"/>
      <rect x="8"  y="16" width="16" height="4" fill="#f5efe6"/>
      <rect x="8"  y="20" width="4"  height="4" fill="#f5efe6"/>
      <rect x="8"  y="24" width="16" height="4" fill="#f5efe6"/>
    </g>
    <!-- label -->
    <g font-family="ui-monospace, SFMono-Regular, Menlo, monospace" fill="#c2410c" font-weight="700">
      <text x="160" y="54" font-size="11" letter-spacing="2">REBUTTALS</text>
    </g>
    <!-- arrow 2 -->
    <g transform="translate(232, 10)" fill="#6b7280">
      <rect x="0"  y="6" width="72" height="4"/>
      <rect x="64" y="2" width="4"  height="4"/>
      <rect x="68" y="6" width="4"  height="4"/>
      <rect x="64" y="10" width="4" height="4"/>
    </g>

    <!-- Round 3 circle -->
    <g transform="translate(360, 0)">
      <rect x="0"  y="0"  width="32" height="32" fill="#1f2937"/>
      <rect x="4"  y="-4" width="24" height="4"  fill="#1f2937"/>
      <rect x="4"  y="32" width="24" height="4"  fill="#1f2937"/>
      <rect x="-4" y="4"  width="4"  height="24" fill="#1f2937"/>
      <rect x="32" y="4"  width="4"  height="24" fill="#1f2937"/>
      <!-- number 3 -->
      <rect x="8"  y="8"  width="16" height="4" fill="#f5efe6"/>
      <rect x="20" y="8"  width="4"  height="8" fill="#f5efe6"/>
      <rect x="12" y="16" width="12" height="4" fill="#f5efe6"/>
      <rect x="20" y="20" width="4"  height="4" fill="#f5efe6"/>
      <rect x="8"  y="24" width="16" height="4" fill="#f5efe6"/>
    </g>
    <!-- label -->
    <g font-family="ui-monospace, SFMono-Regular, Menlo, monospace" fill="#1f2937">
      <text x="340" y="54" font-size="11" letter-spacing="2">SYNTHESIS</text>
    </g>

    <!-- Conclusion card after round 3 -->
    <g transform="translate(480, -10)">
      <rect x="0"  y="0"  width="120" height="52" fill="#ffffff"/>
      <rect x="0"  y="0"  width="120" height="4"  fill="#c9b58a"/>
      <rect x="0"  y="48" width="120" height="4"  fill="#c9b58a"/>
      <rect x="0"  y="0"  width="4"   height="52" fill="#c9b58a"/>
      <rect x="116" y="0" width="4"   height="52" fill="#c9b58a"/>
      <!-- checkmark -->
      <rect x="10" y="14" width="3" height="3" fill="#15803d"/>
      <rect x="13" y="17" width="3" height="3" fill="#15803d"/>
      <rect x="16" y="14" width="3" height="3" fill="#15803d"/>
      <rect x="19" y="11" width="3" height="3" fill="#15803d"/>
      <rect x="22" y="8"  width="3" height="3" fill="#15803d"/>
      <rect x="30" y="12" width="60" height="3" fill="#9ca3af"/>
      <!-- exclamation (dissent) -->
      <rect x="12" y="28" width="3" height="10" fill="#c2410c"/>
      <rect x="12" y="40" width="3" height="3"  fill="#c2410c"/>
      <rect x="22" y="30" width="60" height="3" fill="#9ca3af"/>
      <rect x="22" y="36" width="48" height="3" fill="#9ca3af"/>
    </g>
  </g>
</svg>
